<svg width="150" height="38" viewBox="0 0 150 38" fill="none" xmlns="http://www.w3.org/2000/svg">
<path d="M45.7158 4.19057C42.6228 3.96303 36.5555 8.99742 36.6962 10.2731C42.7092 6.2181 45.1753 6.61126 47.9621 7.47318C49.2319 7.63287 48.8088 4.41812 45.7158 4.19057Z" fill="#262A29"/>
<path d="M50.3797 4.26455C53.2126 4.05615 58.7694 8.66702 58.6406 9.83542C53.1334 6.12151 50.8748 6.4816 48.3223 7.27102C47.1594 7.41727 47.5469 4.47296 50.3797 4.26455Z" fill="#262A29"/>
<path d="M47.4378 2.66362C44.6641 1.28598 37.1245 3.65294 36.7662 4.88599C43.8806 3.4044 46.011 4.69863 48.2586 6.54749C49.3719 7.17435 50.2116 4.04126 47.4378 2.66362Z" fill="#262A29"/>
<path d="M50.183 2.5453C52.7234 1.28355 59.6287 3.45139 59.9569 4.58071C53.441 3.22376 51.4899 4.40911 49.4313 6.10244C48.4117 6.67656 47.6426 3.80704 50.183 2.5453Z" fill="#262A29"/>
<path d="M48.4815 2.3937C46.434 0.0810632 38.5514 -0.542866 37.7519 0.465641C44.9049 1.75099 46.388 3.74599 47.7695 6.29865C48.5632 7.29535 50.529 4.70633 48.4815 2.3937Z" fill="#262A29"/>
<path d="M48.018 1.34571C50.1558 -0.511167 57.3886 -0.141898 57.9931 0.868775C51.3431 1.18671 49.756 2.82217 48.1941 4.97607C47.3533 5.78687 45.8802 3.20258 48.018 1.34571Z" fill="#262A29"/>
<path d="M16.552 8.38233C16.8695 8.38233 17.1606 8.5145 17.4252 8.77882C17.6899 9.02993 17.8222 9.32069 17.8222 9.65109L18.0802 36.4933C18.0802 36.903 17.9413 37.2136 17.6634 37.4251C17.3988 37.6366 17.1077 37.7423 16.7902 37.7423C16.4726 37.7423 16.1749 37.6366 15.8971 37.4251C15.6324 37.2269 15.5001 36.9229 15.5001 36.5132L15.3811 24.6185L2.71897 24.4599L2.83805 36.7312C2.83805 37.1542 2.69913 37.4714 2.42128 37.6828C2.15666 37.8943 1.85896 38 1.52818 38C1.21064 38 0.919555 37.8943 0.654935 37.6828C0.390315 37.4846 0.258005 37.1806 0.258005 36.7709L0 9.92864C0 9.51893 0.13231 9.20835 0.39693 8.99689C0.674782 8.78543 0.97248 8.6797 1.29002 8.6797C1.60757 8.6797 1.89865 8.78543 2.16327 8.99689C2.44112 9.19514 2.58005 9.49911 2.58005 9.90881L2.69913 21.8827L15.3612 22.0413C15.348 19.9796 15.3281 17.9179 15.3017 15.8561C15.2884 13.7944 15.2686 11.7327 15.2421 9.67092C15.2421 9.3273 15.3744 9.02993 15.6391 8.77882C15.9037 8.5145 16.208 8.38233 16.552 8.38233Z" fill="#262A29"/>
<path d="M32.2109 16.5896C35.5054 16.7879 38.2046 18.4135 40.3083 21.4664C40.8772 22.2858 41.3138 23.1978 41.6182 24.2022C41.9225 25.1934 42.0746 26.297 42.0746 27.5129C42.0746 29.3235 41.6446 30.9491 40.7846 32.3897C39.9246 33.817 38.8859 34.9206 37.6687 35.7004C36.8881 36.2026 36.0082 36.6057 35.0291 36.9097C34.05 37.2004 33.0378 37.3458 31.9926 37.3458C30.0476 37.3458 28.3871 36.9229 27.0111 36.077C25.6483 35.218 24.5501 34.1541 23.7166 32.8853C22.592 31.1407 22.0296 29.2706 22.0296 27.275C22.0296 26.7463 22.0693 26.2111 22.1487 25.6692C22.5192 23.0392 23.624 20.8849 25.4631 19.2065C27.3154 17.5148 29.4059 16.6227 31.7346 16.5302C31.8934 16.5037 32.0521 16.5236 32.2109 16.5896ZM39.4747 27.3741C39.4747 25.841 39.1175 24.4731 38.403 23.2705C37.6885 22.0546 36.7624 21.0898 35.6245 20.3761C34.4999 19.6492 33.3157 19.2461 32.072 19.1668C31.9661 19.1668 31.8603 19.147 31.7544 19.1073C30.4049 19.1866 29.1876 19.6029 28.1027 20.3563C27.0177 21.0964 26.1577 22.0744 25.5226 23.2903C24.9008 24.493 24.5898 25.8344 24.5898 27.3146C24.5898 28.4512 24.8082 29.4821 25.2448 30.4072C25.6946 31.3324 26.2702 32.1254 26.9714 32.7862C27.6859 33.4338 28.4268 33.9162 29.1942 34.2334C30.1204 34.6034 31.073 34.7884 32.0521 34.7884C33.4149 34.7884 34.652 34.4712 35.7634 33.8369C36.8881 33.1893 37.7415 32.4095 38.3236 31.4976C38.7073 30.8896 38.9918 30.2354 39.177 29.535C39.3755 28.8213 39.4747 28.101 39.4747 27.3741Z" fill="#262A29"/>
<path d="M48.2013 4.74362C48.5321 4.74362 48.8232 4.88239 49.0746 5.15993C49.3392 5.42426 49.4583 5.73484 49.4318 6.09168C49.2069 11.5764 48.9018 19.5038 48.7827 23.3101C48.6637 27.1164 48.6041 30.0901 48.6041 32.2311C48.6041 34.0946 48.6504 35.3237 48.7431 35.9184C48.7563 35.9977 48.7629 36.0704 48.7629 36.1365C48.7629 36.533 48.624 36.837 48.3461 37.0484C48.0683 37.2599 47.764 37.3656 47.4332 37.3656C47.1553 37.3656 46.8907 37.2797 46.6393 37.1079C46.4012 36.9361 46.2556 36.6651 46.2027 36.2951C46.0969 35.6211 46.0439 34.24 46.0439 32.1518C46.0439 27.7111 46.4085 16.7969 46.8716 5.97273C46.8848 5.62911 47.0238 5.33835 47.2884 5.10046C47.5662 4.86256 47.8706 4.74362 48.2013 4.74362Z" fill="#262A29"/>
<path d="M53.2681 13.0609C53.2681 12.5719 53.4136 12.1027 53.7047 11.6534C54.009 11.1908 54.3795 10.8207 54.8161 10.5432C55.2527 10.2524 55.6827 10.1071 56.1061 10.1071C56.728 10.1071 57.2506 10.3714 57.674 10.9C58.1106 11.4155 58.3289 11.9309 58.3289 12.4463C58.3289 12.9353 58.1768 13.3847 57.8725 13.7944C57.5681 14.2041 57.158 14.5015 56.642 14.6865C56.0598 14.9773 55.5438 15.1226 55.0939 15.1226C54.6044 15.1226 54.1744 14.9244 53.8039 14.5279C53.4467 14.1182 53.2681 13.6292 53.2681 13.0609ZM56.4832 33.9162C56.4435 34.9735 56.298 35.8193 56.0466 36.4537C55.7952 37.0749 55.3586 37.3854 54.7367 37.3854C54.3927 37.3854 54.0884 37.2599 53.8238 37.0088C53.5591 36.7577 53.4268 36.4471 53.4268 36.077C53.4268 35.9052 53.4599 35.7334 53.5261 35.5616C53.6451 35.284 53.7378 34.7356 53.8039 33.9162C53.8833 33.0835 53.9428 32.1055 53.9825 30.9821C54.0222 29.8588 54.0487 28.7023 54.0619 27.5129C54.0884 26.3102 54.1016 25.1934 54.1016 24.1626C54.1016 23.1317 54.1016 22.3123 54.1016 21.7043C54.1016 20.5809 54.095 19.5038 54.0818 18.473C54.0818 18.05 54.2141 17.7328 54.4787 17.5214C54.7565 17.3099 55.0609 17.2042 55.3916 17.2042C55.7092 17.2042 55.9936 17.3099 56.245 17.5214C56.5097 17.7196 56.642 18.0236 56.642 18.4333C56.6552 19.1338 56.6618 19.821 56.6618 20.495C56.675 21.1691 56.6817 21.8299 56.6817 22.4775C56.6817 24.6317 56.6684 26.5811 56.642 28.3257C56.6287 30.0702 56.5758 31.9337 56.4832 33.9162Z" fill="#262A29"/>
<path d="M81.7478 28.7023C81.7478 29.6803 81.7941 30.7443 81.8867 31.8941C81.9794 33.0307 82.0257 34.0351 82.0257 34.9074C82.0257 35.4228 81.9198 35.8722 81.7081 36.2554C81.5097 36.6255 81.1458 36.8105 80.6166 36.8105C80.2593 36.8105 79.9682 36.6718 79.7433 36.3942C79.5184 36.1167 79.3927 35.7995 79.3662 35.4426C79.3398 35.099 79.3133 34.6959 79.2868 34.2334C79.2604 33.7708 79.2339 33.2553 79.2075 32.687C77.3684 35.5946 75.0198 37.0484 72.1619 37.0484C70.2434 37.0484 68.5433 36.6255 67.0614 35.7797C65.5927 34.9338 64.435 33.7642 63.5882 32.2707C62.7547 30.7641 62.3379 29.0328 62.3379 27.0767C62.3379 25.5965 62.5893 24.156 63.0921 22.755C63.5949 21.3409 64.2763 20.1184 65.1363 19.0875C66.5388 17.3958 68.3448 16.55 70.5544 16.55C70.7925 16.55 71.0373 16.5566 71.2887 16.5698C73.8291 16.7681 76.4157 18.2417 79.0487 20.9907C79.0487 20.1712 79.0487 19.2131 79.0487 18.1161C79.0487 17.0059 79.0553 15.7636 79.0685 14.3891L79.1082 9.55197C79.1082 9.14227 79.2405 8.83169 79.5052 8.62023C79.783 8.40877 80.0807 8.30304 80.3983 8.30304C80.729 8.30304 81.0267 8.40877 81.2914 8.62023C81.556 8.83169 81.6883 9.14888 81.6883 9.5718L81.6486 14.4288C81.6354 16.213 81.6221 17.8386 81.6089 19.3056C81.6089 20.7594 81.6089 22.0546 81.6089 23.1912C81.6089 24.6317 81.6155 25.7815 81.6287 26.6406C81.7081 26.8785 81.7478 27.2948 81.7478 27.8895C81.7478 28.0217 81.7478 28.1539 81.7478 28.286C81.7478 28.4182 81.7478 28.557 81.7478 28.7023ZM72.1818 34.4712C74.8941 34.4712 77.0376 32.3104 78.6121 27.9887C78.7179 27.7111 78.8039 27.4732 78.8701 27.275C78.9362 27.0767 78.9958 26.9115 79.0487 26.7794V24.9754C76.1776 21.288 73.4983 19.3386 71.0108 19.1272C70.8918 19.1139 70.7727 19.1073 70.6536 19.1073C69.4893 19.1073 68.4771 19.4972 67.6171 20.277C66.7571 21.0435 66.0955 22.0281 65.6324 23.2308C65.1694 24.4203 64.9378 25.6626 64.9378 26.9578C64.9378 29.1781 65.5861 30.9888 66.8828 32.3897C68.1794 33.7774 69.9458 34.4712 72.1818 34.4712Z" fill="#262A29"/>
<path d="M103.539 23.3696C103.579 23.515 103.599 23.6669 103.599 23.8255C103.599 24.1295 103.539 24.4797 103.42 24.8762C103.222 26.9644 103.123 28.8279 103.123 30.4667C103.123 32.7531 103.314 34.61 103.698 36.0374C103.738 36.1695 103.758 36.2951 103.758 36.414C103.758 36.7841 103.612 37.0749 103.321 37.2863C103.043 37.511 102.739 37.6233 102.408 37.6233C102.157 37.6233 101.919 37.5506 101.694 37.4053C101.469 37.2599 101.31 37.022 101.217 36.6916C100.807 35.1717 100.589 33.2421 100.562 30.9029C99.3054 32.9249 97.9558 34.5175 96.5136 35.6805C95.6404 36.381 94.7407 36.7775 93.8145 36.87C93.2588 37.0286 92.7163 37.1079 92.1871 37.1079C91.4329 37.1079 90.7449 36.9691 90.123 36.6916C89.5012 36.414 88.9653 36.0638 88.5155 35.6409C87.7084 34.8876 87.0799 33.9162 86.6301 32.7267C86.1934 31.524 85.9751 30.1363 85.9751 28.5636C85.9751 26.5415 86.4448 24.6119 87.3842 22.7749C88.7603 20.0787 90.8508 18.2813 93.6557 17.3826C94.7274 17.0258 95.7595 16.8474 96.7518 16.8474C97.9955 16.8474 99.1665 17.1381 100.265 17.7196C102.183 18.7373 103.275 20.6206 103.539 23.3696ZM100.959 23.548C100.84 22.2792 100.423 21.2748 99.7089 20.5347C99.0077 19.7946 98.0484 19.4245 96.8312 19.4245C96.1035 19.4245 95.3096 19.5633 94.4496 19.8408C92.3194 20.5149 90.7648 21.8167 89.7857 23.7462C88.9653 25.3718 88.5552 26.9908 88.5552 28.6032C88.5552 29.7398 88.7073 30.7575 89.0117 31.6562C89.316 32.5549 89.7063 33.2289 90.1826 33.6783C90.778 34.2334 91.4528 34.5109 92.2069 34.5109C92.4583 34.5109 92.6965 34.4845 92.9214 34.4316C93.1596 34.3655 93.4242 34.3193 93.7153 34.2928C93.9402 34.2664 94.3834 33.9955 95.045 33.48C95.7065 32.9514 96.4078 32.2047 97.1487 31.2399C97.9029 30.2751 98.6107 29.1913 99.2723 27.9887C99.9338 26.786 100.47 25.5767 100.88 24.3608C100.893 24.2286 100.906 24.0965 100.92 23.9643C100.933 23.8189 100.946 23.6802 100.959 23.548Z" fill="#262A29"/>
<path d="M124.299 20.7131C124.299 21.5325 123.968 22.4312 123.306 23.4092C122.645 24.3872 121.785 25.3917 120.726 26.4225C119.681 27.4402 118.563 28.4446 117.372 29.4358C116.195 30.4271 115.07 31.3522 113.998 32.2113C112.927 33.0703 112.047 33.8104 111.359 34.4316C116.175 34.5505 119.761 34.61 122.116 34.61C123.439 34.61 124.378 34.5902 124.934 34.5505C125.146 34.4316 125.357 34.3721 125.569 34.3721C125.873 34.3721 126.191 34.5373 126.522 34.8677C126.866 35.1849 127.038 35.5087 127.038 35.8391C127.038 36.1299 126.892 36.3942 126.601 36.6321C126.006 37.1211 124.98 37.3656 123.525 37.3656C122.241 37.3656 120.859 37.3392 119.377 37.2863C117.908 37.2467 116.44 37.2004 114.971 37.1475C113.502 37.0815 112.126 37.0286 110.843 36.989C109.983 36.9757 109.434 36.9427 109.196 36.8898C108.666 36.7709 108.289 36.5726 108.064 36.2951C107.839 36.0176 107.727 35.707 107.727 35.3633C107.727 34.9933 107.833 34.61 108.044 34.2135C108.269 33.817 108.554 33.4602 108.898 33.143C109.295 32.7862 109.89 32.2773 110.684 31.6165C111.491 30.9425 112.358 30.2288 113.284 29.4755C114.21 28.709 115.077 27.9887 115.884 27.3146C116.691 26.6406 117.306 26.1186 117.73 25.7485C118.881 24.7309 119.899 23.6009 120.786 22.3585C121.395 21.4863 121.699 20.8453 121.699 20.4356C121.699 20.2505 121.646 20.1052 121.54 19.9994C121.011 19.4972 119.43 19.2461 116.797 19.2461C116.373 19.2461 115.824 19.2593 115.15 19.2858C114.488 19.299 113.8 19.3188 113.085 19.3452C112.371 19.3717 111.736 19.3981 111.18 19.4245C110.625 19.4377 110.241 19.4443 110.029 19.4443C109.5 19.4443 109.057 19.3518 108.699 19.1668C108.355 18.9686 108.183 18.6315 108.183 18.1558C108.183 17.7328 108.322 17.4157 108.6 17.2042C108.891 16.9795 109.262 16.8672 109.712 16.8672C109.764 16.8672 109.811 16.8672 109.85 16.8672C109.903 16.8672 109.963 16.8672 110.029 16.8672C110.267 16.8672 110.704 16.854 111.339 16.8275C111.987 16.8011 112.708 16.7747 113.502 16.7482C114.296 16.7086 115.044 16.6821 115.745 16.6689C116.459 16.6425 117.002 16.6293 117.372 16.6293C118.126 16.6293 118.801 16.6689 119.397 16.7482C120.005 16.8143 120.693 16.9465 121.461 17.1447C122.347 17.3694 123.042 17.7791 123.545 18.3738C124.047 18.9686 124.299 19.7483 124.299 20.7131Z" fill="#262A29"/>
<path d="M133.845 30.4271C134.229 31.8016 134.97 32.8787 136.068 33.6584C137.179 34.4382 138.575 34.8281 140.255 34.8281C142.505 34.8281 145.118 34.0946 148.095 32.6276C148.28 32.5351 148.472 32.4888 148.67 32.4888C149.014 32.4888 149.312 32.6077 149.563 32.8456C149.828 33.0835 149.96 33.3809 149.96 33.7377C149.96 34.306 149.722 34.7091 149.246 34.947C147.738 35.6871 146.203 36.2819 144.641 36.7312C143.08 37.1806 141.572 37.4053 140.116 37.4053C138.621 37.4053 137.225 37.1277 135.929 36.5726C134.645 36.0176 133.547 35.0924 132.634 33.7972C132.118 33.0703 131.721 32.2972 131.444 31.4778C131.166 30.6583 131.027 29.7398 131.027 28.7222C131.027 28.2728 131.053 27.8036 131.106 27.3146C131.41 24.7903 132.462 22.6295 134.262 20.8321C136.59 18.506 139.653 17.343 143.451 17.343C144.906 17.343 146.183 17.6271 147.281 18.1954C148.379 18.7505 149.16 19.5435 149.623 20.5743C149.874 21.1426 150 21.744 150 22.3784C150 23.4621 149.716 24.4203 149.147 25.2529C148.591 26.0723 147.797 26.8322 146.765 27.5327C143.867 29.4887 139.667 30.4667 134.162 30.4667C134.083 30.4667 133.977 30.4535 133.845 30.4271ZM133.627 28.0085C133.812 27.9292 133.99 27.8895 134.162 27.8895C139.151 27.8895 142.875 27.0569 145.336 25.3917C146.024 24.9291 146.547 24.4599 146.904 23.9841C147.261 23.4951 147.44 22.9334 147.44 22.2991C147.44 21.929 147.354 21.6316 147.182 21.407C147.023 21.1823 146.811 20.9708 146.547 20.7726C145.806 20.2043 144.78 19.9201 143.47 19.9201C141.711 19.9201 140.11 20.2505 138.668 20.9114C137.225 21.559 136.055 22.4907 135.155 23.7066C134.268 24.9093 133.759 26.3432 133.627 28.0085Z" fill="#262A29"/>
</svg>
